solid liposensor
facet normal 0.0 1.0 0.0
  outer loop
    vertex 37.400000000000006 12.424998884140974 10.199999999999994
    vertex 39.60000000000001 12.424998884140974 5.2
    vertex 37.400000000000006 12.424998884140974 5.2
  endloop
endfacet
facet normal 0.0 1.0 0.0
  outer loop
    vertex 39.60000000000001 12.424998884140974 5.2
    vertex 37.400000000000006 12.424998884140974 10.199999999999994
    vertex 39.60000000000001 12.424998884140974 10.199999999999994
  endloop
endfacet
facet normal -0.0 -1.0 -0.0
  outer loop
    vertex 39.60000000000001 20.299999999999994 10.199999999999994
    vertex 37.400000000000006 20.299999999999994 5.2
    vertex 39.60000000000001 20.299999999999994 5.2
  endloop
endfacet
facet normal -0.0 -1.0 -0.0
  outer loop
    vertex 37.400000000000006 20.299999999999994 5.2
    vertex 39.60000000000001 20.299999999999994 10.199999999999994
    vertex 37.400000000000006 20.299999999999994 10.199999999999994
  endloop
endfacet
facet normal 0.0 0.0 1.0
  outer loop
    vertex 39.60000000000001 12.424998884140974 5.2
    vertex 37.400000000000006 20.299999999999994 5.2
    vertex 37.400000000000006 12.424998884140974 5.2
  endloop
endfacet
facet normal 0.0 0.0 1.0
  outer loop
    vertex 37.400000000000006 20.299999999999994 5.2
    vertex 39.60000000000001 12.424998884140974 5.2
    vertex 39.60000000000001 20.299999999999994 5.2
  endloop
endfacet
facet normal 0.0 0.0 1.0
  outer loop
    vertex 2.1999999999999997 4.199999999999999 5.199999999999995
    vertex 0.0 22.9 5.199999999999995
    vertex 0.0 4.199999999999999 5.199999999999995
  endloop
endfacet
facet normal 0.0 0.0 1.0
  outer loop
    vertex 0.0 22.9 5.199999999999995
    vertex 2.1999999999999997 4.199999999999999 5.199999999999995
    vertex 2.1999999999999997 22.9 5.199999999999995
  endloop
endfacet
facet normal -0.0 -1.0 -0.0
  outer loop
    vertex 39.60000000000001 1.9999999999999998 10.199999999999994
    vertex 0.0 1.9999999999999998 0.0
    vertex 39.60000000000001 1.9999999999999998 0.0
  endloop
endfacet
facet normal -0.0 -1.0 -0.0
  outer loop
    vertex 0.0 1.9999999999999998 0.0
    vertex 39.60000000000001 1.9999999999999998 10.199999999999994
    vertex 0.0 1.9999999999999998 10.199999999999994
  endloop
endfacet
facet normal 1.0 0.0 0.0
  outer loop
    vertex 39.60000000000001 1.9999999999999998 0.0
    vertex 39.60000000000001 12.424998884140974 5.2
    vertex 39.60000000000001 1.9999999999999998 10.199999999999994
  endloop
endfacet
facet normal 1.0 0.0 0.0
  outer loop
    vertex 39.60000000000001 12.424998884140974 5.2
    vertex 39.60000000000001 1.9999999999999998 0.0
    vertex 39.60000000000001 29.900000000000002 0.0
  endloop
endfacet
facet normal 1.0 0.0 0.0
  outer loop
    vertex 39.60000000000001 12.424998884140974 5.2
    vertex 39.60000000000001 29.900000000000002 0.0
    vertex 39.60000000000001 20.299999999999994 5.2
  endloop
endfacet
facet normal 1.0 0.0 0.0
  outer loop
    vertex 39.60000000000001 20.299999999999994 5.2
    vertex 39.60000000000001 29.900000000000002 0.0
    vertex 39.60000000000001 20.299999999999994 10.199999999999994
  endloop
endfacet
facet normal 1.0 0.0 0.0
  outer loop
    vertex 39.60000000000001 20.299999999999994 10.199999999999994
    vertex 39.60000000000001 29.900000000000002 0.0
    vertex 39.60000000000001 29.900000000000002 10.199999999999994
  endloop
endfacet
facet normal 1.0 0.0 0.0
  outer loop
    vertex 39.60000000000001 12.424998884140974 10.199999999999994
    vertex 39.60000000000001 1.9999999999999998 10.199999999999994
    vertex 39.60000000000001 12.424998884140974 5.2
  endloop
endfacet
facet normal 0.0 1.0 0.0
  outer loop
    vertex 0.0 29.900000000000002 10.199999999999994
    vertex 39.60000000000001 29.900000000000002 0.0
    vertex 0.0 29.900000000000002 0.0
  endloop
endfacet
facet normal 0.0 1.0 0.0
  outer loop
    vertex 39.60000000000001 29.900000000000002 0.0
    vertex 0.0 29.900000000000002 10.199999999999994
    vertex 39.60000000000001 29.900000000000002 10.199999999999994
  endloop
endfacet
facet normal -0.0 -1.0 -0.0
  outer loop
    vertex 2.1999999999999997 22.9 10.199999999999994
    vertex 0.0 22.9 5.199999999999995
    vertex 2.1999999999999997 22.9 5.199999999999995
  endloop
endfacet
facet normal -0.0 -1.0 -0.0
  outer loop
    vertex 0.0 22.9 5.199999999999995
    vertex 2.1999999999999997 22.9 10.199999999999994
    vertex 0.0 22.9 10.199999999999994
  endloop
endfacet
facet normal -1.0 -0.0 -0.0
  outer loop
    vertex 37.400000000000006 27.7 10.199999999999994
    vertex 37.400000000000006 20.299999999999994 5.2
    vertex 37.400000000000006 20.299999999999994 10.199999999999994
  endloop
endfacet
facet normal -1.0 -0.0 -0.0
  outer loop
    vertex 37.400000000000006 12.424998884140974 10.199999999999994
    vertex 37.400000000000006 4.199999999999999 2.4
    vertex 37.400000000000006 4.199999999999999 10.199999999999994
  endloop
endfacet
facet normal -1.0 -0.0 -0.0
  outer loop
    vertex 37.400000000000006 4.199999999999999 2.4
    vertex 37.400000000000006 12.424998884140974 10.199999999999994
    vertex 37.400000000000006 12.424998884140974 5.2
  endloop
endfacet
facet normal -1.0 -0.0 -0.0
  outer loop
    vertex 37.400000000000006 4.199999999999999 2.4
    vertex 37.400000000000006 12.424998884140974 5.2
    vertex 37.400000000000006 27.7 2.4
  endloop
endfacet
facet normal -1.0 -0.0 -0.0
  outer loop
    vertex 37.400000000000006 27.7 2.4
    vertex 37.400000000000006 12.424998884140974 5.2
    vertex 37.400000000000006 20.299999999999994 5.2
  endloop
endfacet
facet normal -1.0 -0.0 -0.0
  outer loop
    vertex 37.400000000000006 27.7 2.4
    vertex 37.400000000000006 20.299999999999994 5.2
    vertex 37.400000000000006 27.7 10.199999999999994
  endloop
endfacet
facet normal 0.0 1.0 0.0
  outer loop
    vertex 0.0 4.199999999999999 10.199999999999994
    vertex 2.1999999999999997 4.199999999999999 5.199999999999995
    vertex 0.0 4.199999999999999 5.199999999999995
  endloop
endfacet
facet normal 0.0 1.0 0.0
  outer loop
    vertex 2.1999999999999997 4.199999999999999 5.199999999999995
    vertex 6.699999999999999 4.199999999999999 1.5000000000000007
    vertex 2.1999999999999997 4.199999999999999 1.5000000000000007
  endloop
endfacet
facet normal 0.0 1.0 0.0
  outer loop
    vertex 6.699999999999999 4.199999999999999 1.5000000000000007
    vertex 2.1999999999999997 4.199999999999999 5.199999999999995
    vertex 6.699999999999999 4.199999999999999 2.4
  endloop
endfacet
facet normal 0.0 1.0 0.0
  outer loop
    vertex 6.699999999999999 4.199999999999999 2.4
    vertex 2.1999999999999997 4.199999999999999 5.199999999999995
    vertex 37.400000000000006 4.199999999999999 2.4
  endloop
endfacet
facet normal 0.0 1.0 0.0
  outer loop
    vertex 37.400000000000006 4.199999999999999 2.4
    vertex 2.1999999999999997 4.199999999999999 5.199999999999995
    vertex 37.400000000000006 4.199999999999999 10.199999999999994
  endloop
endfacet
facet normal 0.0 1.0 0.0
  outer loop
    vertex 37.400000000000006 4.199999999999999 10.199999999999994
    vertex 2.1999999999999997 4.199999999999999 5.199999999999995
    vertex 0.0 4.199999999999999 10.199999999999994
  endloop
endfacet
facet normal 0.0 0.0 1.0
  outer loop
    vertex 39.60000000000001 1.9999999999999998 10.199999999999994
    vertex 0.0 4.199999999999999 10.199999999999994
    vertex 0.0 1.9999999999999998 10.199999999999994
  endloop
endfacet
facet normal 0.0 0.0 1.0
  outer loop
    vertex 0.0 4.199999999999999 10.199999999999994
    vertex 39.60000000000001 1.9999999999999998 10.199999999999994
    vertex 37.400000000000006 4.199999999999999 10.199999999999994
  endloop
endfacet
facet normal 0.0 0.0 1.0
  outer loop
    vertex 37.400000000000006 4.199999999999999 10.199999999999994
    vertex 39.60000000000001 1.9999999999999998 10.199999999999994
    vertex 37.400000000000006 12.424998884140974 10.199999999999994
  endloop
endfacet
facet normal 0.0 0.0 1.0
  outer loop
    vertex 37.400000000000006 12.424998884140974 10.199999999999994
    vertex 39.60000000000001 1.9999999999999998 10.199999999999994
    vertex 39.60000000000001 12.424998884140974 10.199999999999994
  endloop
endfacet
facet normal -1.0 -0.0 -0.0
  outer loop
    vertex 6.699999999999999 27.7 2.4
    vertex 6.699999999999999 4.199999999999999 1.5000000000000007
    vertex 6.699999999999999 4.199999999999999 2.4
  endloop
endfacet
facet normal -1.0 -0.0 -0.0
  outer loop
    vertex 6.699999999999999 4.199999999999999 1.5000000000000007
    vertex 6.699999999999999 27.7 2.4
    vertex 6.699999999999999 27.7 1.5000000000000007
  endloop
endfacet
facet normal 0.0 0.0 1.0
  outer loop
    vertex 37.400000000000006 4.199999999999999 2.4
    vertex 6.699999999999999 27.7 2.4
    vertex 6.699999999999999 4.199999999999999 2.4
  endloop
endfacet
facet normal 0.0 0.0 1.0
  outer loop
    vertex 6.699999999999999 27.7 2.4
    vertex 37.400000000000006 4.199999999999999 2.4
    vertex 37.400000000000006 27.7 2.4
  endloop
endfacet
facet normal 0.0 0.0 1.0
  outer loop
    vertex 39.60000000000001 20.299999999999994 10.199999999999994
    vertex 37.400000000000006 27.7 10.199999999999994
    vertex 37.400000000000006 20.299999999999994 10.199999999999994
  endloop
endfacet
facet normal 0.0 0.0 1.0
  outer loop
    vertex 2.1999999999999997 22.9 10.199999999999994
    vertex 0.0 29.900000000000002 10.199999999999994
    vertex 0.0 22.9 10.199999999999994
  endloop
endfacet
facet normal 0.0 0.0 1.0
  outer loop
    vertex 0.0 29.900000000000002 10.199999999999994
    vertex 2.1999999999999997 22.9 10.199999999999994
    vertex 2.1999999999999997 27.7 10.199999999999994
  endloop
endfacet
facet normal 0.0 0.0 1.0
  outer loop
    vertex 0.0 29.900000000000002 10.199999999999994
    vertex 2.1999999999999997 27.7 10.199999999999994
    vertex 39.60000000000001 29.900000000000002 10.199999999999994
  endloop
endfacet
facet normal 0.0 0.0 1.0
  outer loop
    vertex 39.60000000000001 29.900000000000002 10.199999999999994
    vertex 2.1999999999999997 27.7 10.199999999999994
    vertex 37.400000000000006 27.7 10.199999999999994
  endloop
endfacet
facet normal 0.0 0.0 1.0
  outer loop
    vertex 39.60000000000001 29.900000000000002 10.199999999999994
    vertex 37.400000000000006 27.7 10.199999999999994
    vertex 39.60000000000001 20.299999999999994 10.199999999999994
  endloop
endfacet
facet normal -1.0 -0.0 -0.0
  outer loop
    vertex 0.0 29.900000000000002 10.199999999999994
    vertex 0.0 22.9 5.199999999999995
    vertex 0.0 22.9 10.199999999999994
  endloop
endfacet
facet normal -1.0 -0.0 -0.0
  outer loop
    vertex 0.0 4.199999999999999 10.199999999999994
    vertex 0.0 1.9999999999999998 0.0
    vertex 0.0 1.9999999999999998 10.199999999999994
  endloop
endfacet
facet normal -1.0 -0.0 -0.0
  outer loop
    vertex 0.0 1.9999999999999998 0.0
    vertex 0.0 4.199999999999999 10.199999999999994
    vertex 0.0 4.199999999999999 5.199999999999995
  endloop
endfacet
facet normal -1.0 -0.0 -0.0
  outer loop
    vertex 0.0 1.9999999999999998 0.0
    vertex 0.0 4.199999999999999 5.199999999999995
    vertex 0.0 29.900000000000002 0.0
  endloop
endfacet
facet normal -1.0 -0.0 -0.0
  outer loop
    vertex 0.0 29.900000000000002 0.0
    vertex 0.0 4.199999999999999 5.199999999999995
    vertex 0.0 22.9 5.199999999999995
  endloop
endfacet
facet normal -1.0 -0.0 -0.0
  outer loop
    vertex 0.0 29.900000000000002 0.0
    vertex 0.0 22.9 5.199999999999995
    vertex 0.0 29.900000000000002 10.199999999999994
  endloop
endfacet
facet normal 1.0 0.0 0.0
  outer loop
    vertex 2.1999999999999997 27.7 1.5000000000000007
    vertex 2.1999999999999997 4.199999999999999 5.199999999999995
    vertex 2.1999999999999997 4.199999999999999 1.5000000000000007
  endloop
endfacet
facet normal 1.0 0.0 0.0
  outer loop
    vertex 2.1999999999999997 4.199999999999999 5.199999999999995
    vertex 2.1999999999999997 27.7 1.5000000000000007
    vertex 2.1999999999999997 22.9 5.199999999999995
  endloop
endfacet
facet normal 1.0 0.0 0.0
  outer loop
    vertex 2.1999999999999997 22.9 5.199999999999995
    vertex 2.1999999999999997 27.7 1.5000000000000007
    vertex 2.1999999999999997 22.9 10.199999999999994
  endloop
endfacet
facet normal 1.0 0.0 0.0
  outer loop
    vertex 2.1999999999999997 22.9 10.199999999999994
    vertex 2.1999999999999997 27.7 1.5000000000000007
    vertex 2.1999999999999997 27.7 10.199999999999994
  endloop
endfacet
facet normal 0.0 0.0 1.0
  outer loop
    vertex 6.699999999999999 4.199999999999999 1.5000000000000007
    vertex 2.1999999999999997 27.7 1.5000000000000007
    vertex 2.1999999999999997 4.199999999999999 1.5000000000000007
  endloop
endfacet
facet normal 0.0 0.0 1.0
  outer loop
    vertex 2.1999999999999997 27.7 1.5000000000000007
    vertex 6.699999999999999 4.199999999999999 1.5000000000000007
    vertex 6.699999999999999 27.7 1.5000000000000007
  endloop
endfacet
facet normal -8.316929437484538e-17 -1.0 -2.110447871334776e-17
  outer loop
    vertex 37.400000000000006 27.7 10.199999999999994
    vertex 6.699999999999999 27.7 2.4
    vertex 37.400000000000006 27.7 2.4
  endloop
endfacet
facet normal -8.316929437484538e-17 -1.0 -2.110447871334776e-17
  outer loop
    vertex 6.699999999999999 27.7 2.4
    vertex 2.1999999999999997 27.7 1.5000000000000007
    vertex 6.699999999999999 27.7 1.5000000000000007
  endloop
endfacet
facet normal -8.316929437484538e-17 -1.0 -2.110447871334776e-17
  outer loop
    vertex 2.1999999999999997 27.7 1.5000000000000007
    vertex 6.699999999999999 27.7 2.4
    vertex 2.1999999999999997 27.7 10.199999999999994
  endloop
endfacet
facet normal -8.316929437484538e-17 -1.0 -2.110447871334776e-17
  outer loop
    vertex 2.1999999999999997 27.7 10.199999999999994
    vertex 6.699999999999999 27.7 2.4
    vertex 37.400000000000006 27.7 10.199999999999994
  endloop
endfacet
facet normal 0.0 0.0 -1.0
  outer loop
    vertex 39.60000000000001 29.900000000000002 0.0
    vertex 0.0 1.9999999999999998 0.0
    vertex 0.0 29.900000000000002 0.0
  endloop
endfacet
facet normal 0.0 0.0 -1.0
  outer loop
    vertex 0.0 1.9999999999999998 0.0
    vertex 39.60000000000001 29.900000000000002 0.0
    vertex 39.60000000000001 1.9999999999999998 0.0
  endloop
endfacet
facet normal 1.0 -1.509406100997508e-34 3.100408345129023e-18
  outer loop
    vertex 37.400000000000006 -2.2000000000000015 2.4999999999999982
    vertex 37.400000000000006 -10.424998884140976 4.799999999999997
    vertex 37.400000000000006 -10.424998884140976 2.4999999999999973
  endloop
endfacet
facet normal 1.0 -1.509406100997508e-34 3.100408345129023e-18
  outer loop
    vertex 37.400000000000006 -10.424998884140976 4.799999999999997
    vertex 37.400000000000006 -2.2000000000000015 2.4999999999999982
    vertex 37.400000000000006 -2.2000000000000015 4.799999999999998
  endloop
endfacet
facet normal -3.1004083451290234e-18 -4.8185936868262085e-17 1.0
  outer loop
    vertex 37.400000000000006 -10.424998884140976 4.799999999999997
    vertex 35.2 -4.4 4.799999999999998
    vertex 35.2 -10.424998884140976 4.799999999999997
  endloop
endfacet
facet normal -3.1004083451290234e-18 -4.8185936868262085e-17 1.0
  outer loop
    vertex 35.2 -4.4 4.799999999999998
    vertex 33.00000000000001 -2.2000000000000015 4.799999999999998
    vertex 33.00000000000001 -4.4 4.799999999999998
  endloop
endfacet
facet normal -3.1004083451290234e-18 -4.8185936868262085e-17 1.0
  outer loop
    vertex 33.00000000000001 -2.2000000000000015 4.799999999999998
    vertex 35.2 -4.4 4.799999999999998
    vertex 37.400000000000006 -2.2000000000000015 4.799999999999998
  endloop
endfacet
facet normal -3.1004083451290234e-18 -4.8185936868262085e-17 1.0
  outer loop
    vertex 37.400000000000006 -2.2000000000000015 4.799999999999998
    vertex 35.2 -4.4 4.799999999999998
    vertex 37.400000000000006 -10.424998884140976 4.799999999999997
  endloop
endfacet
facet normal -2.5086835825452987e-34 1.0 7.057487197226494e-17
  outer loop
    vertex 33.00000000000001 -23.499999999999993 4.799999999999996
    vertex 35.2 -23.499999999999993 2.499999999999997
    vertex 33.00000000000001 -23.499999999999993 2.499999999999997
  endloop
endfacet
facet normal -2.5086835825452987e-34 1.0 7.057487197226494e-17
  outer loop
    vertex 35.2 -23.499999999999993 2.499999999999997
    vertex 33.00000000000001 -23.499999999999993 4.799999999999996
    vertex 35.2 -23.499999999999993 4.799999999999996
  endloop
endfacet
facet normal -1.0 1.8223902898486012e-34 -2.9181568818793852e-18
  outer loop
    vertex 33.00000000000001 -23.499999999999993 4.799999999999996
    vertex 33.00000000000001 -25.7 2.4999999999999964
    vertex 33.00000000000001 -25.7 4.799999999999996
  endloop
endfacet
facet normal -1.0 1.8223902898486012e-34 -2.9181568818793852e-18
  outer loop
    vertex 33.00000000000001 -25.7 2.4999999999999964
    vertex 33.00000000000001 -23.499999999999993 4.799999999999996
    vertex 33.00000000000001 -23.499999999999993 2.499999999999997
  endloop
endfacet
facet normal 0.0 -1.0 -7.057487197226494e-17
  outer loop
    vertex 37.400000000000006 -25.7 4.799999999999996
    vertex 33.00000000000001 -25.7 2.4999999999999964
    vertex 37.400000000000006 -25.7 2.4999999999999964
  endloop
endfacet
facet normal 0.0 -1.0 -7.057487197226494e-17
  outer loop
    vertex 33.00000000000001 -25.7 2.4999999999999964
    vertex 37.400000000000006 -25.7 4.799999999999996
    vertex 33.00000000000001 -25.7 4.799999999999996
  endloop
endfacet
facet normal -1.0 1.8223902898486012e-34 -2.9181568818793852e-18
  outer loop
    vertex 35.2 -18.299999999999994 4.799999999999997
    vertex 35.2 -23.499999999999993 2.499999999999997
    vertex 35.2 -23.499999999999993 4.799999999999996
  endloop
endfacet
facet normal -1.0 1.8223902898486012e-34 -2.9181568818793852e-18
  outer loop
    vertex 35.2 -23.499999999999993 2.499999999999997
    vertex 35.2 -18.299999999999994 4.799999999999997
    vertex 35.2 -18.299999999999994 2.4999999999999973
  endloop
endfacet
facet normal -1.0 1.9362064109074997e-34 -3.1004083451290242e-18
  outer loop
    vertex 33.00000000000001 -2.2000000000000015 4.799999999999998
    vertex 33.00000000000001 -4.4 2.499999999999998
    vertex 33.00000000000001 -4.4 4.799999999999998
  endloop
endfacet
facet normal -1.0 1.9362064109074997e-34 -3.1004083451290242e-18
  outer loop
    vertex 33.00000000000001 -4.4 2.499999999999998
    vertex 33.00000000000001 -2.2000000000000015 4.799999999999998
    vertex 33.00000000000001 -2.2000000000000015 2.4999999999999982
  endloop
endfacet
facet normal 0.0 1.0 4.8185936868262085e-17
  outer loop
    vertex 33.00000000000001 -2.2000000000000015 4.799999999999998
    vertex 37.400000000000006 -2.2000000000000015 2.4999999999999982
    vertex 33.00000000000001 -2.2000000000000015 2.4999999999999982
  endloop
endfacet
facet normal 0.0 1.0 4.8185936868262085e-17
  outer loop
    vertex 37.400000000000006 -2.2000000000000015 2.4999999999999982
    vertex 33.00000000000001 -2.2000000000000015 4.799999999999998
    vertex 37.400000000000006 -2.2000000000000015 4.799999999999998
  endloop
endfacet
facet normal 0.0 1.0 7.057487197226494e-17
  outer loop
    vertex 35.2 -18.299999999999994 4.799999999999997
    vertex 37.400000000000006 -18.299999999999994 2.4999999999999973
    vertex 35.2 -18.299999999999994 2.4999999999999973
  endloop
endfacet
facet normal 0.0 1.0 7.057487197226494e-17
  outer loop
    vertex 37.400000000000006 -18.299999999999994 2.4999999999999973
    vertex 35.2 -18.299999999999994 4.799999999999997
    vertex 37.400000000000006 -18.299999999999994 4.799999999999997
  endloop
endfacet
facet normal -1.0 1.3535619755697817e-34 -3.1004083451290234e-18
  outer loop
    vertex 35.2 -4.4 4.799999999999998
    vertex 35.2 -10.424998884140976 2.4999999999999973
    vertex 35.2 -10.424998884140976 4.799999999999997
  endloop
endfacet
facet normal -1.0 1.3535619755697817e-34 -3.1004083451290234e-18
  outer loop
    vertex 35.2 -10.424998884140976 2.4999999999999973
    vertex 35.2 -4.4 4.799999999999998
    vertex 35.2 -4.4 2.499999999999998
  endloop
endfacet
facet normal 1.0 -2.090264788472179e-34 2.9181568818793856e-18
  outer loop
    vertex 37.400000000000006 -18.299999999999994 2.4999999999999973
    vertex 37.400000000000006 -25.7 4.799999999999996
    vertex 37.400000000000006 -25.7 2.4999999999999964
  endloop
endfacet
facet normal 1.0 -2.090264788472179e-34 2.9181568818793856e-18
  outer loop
    vertex 37.400000000000006 -25.7 4.799999999999996
    vertex 37.400000000000006 -18.299999999999994 2.4999999999999973
    vertex 37.400000000000006 -18.299999999999994 4.799999999999997
  endloop
endfacet
facet normal 0.0 -1.0 -4.8185936868262085e-17
  outer loop
    vertex 35.2 -4.4 4.799999999999998
    vertex 33.00000000000001 -4.4 2.499999999999998
    vertex 35.2 -4.4 2.499999999999998
  endloop
endfacet
facet normal 0.0 -1.0 -4.8185936868262085e-17
  outer loop
    vertex 33.00000000000001 -4.4 2.499999999999998
    vertex 35.2 -4.4 4.799999999999998
    vertex 33.00000000000001 -4.4 4.799999999999998
  endloop
endfacet
facet normal 0.0 -3.770008666507885e-17 1.0
  outer loop
    vertex 2.1999999999999997 -20.9 4.799999999999997
    vertex 0.0 -2.2000000000000015 4.799999999999997
    vertex 0.0 -20.9 4.799999999999997
  endloop
endfacet
facet normal 0.0 -3.770008666507885e-17 1.0
  outer loop
    vertex 0.0 -2.2000000000000015 4.799999999999997
    vertex 2.1999999999999997 -20.9 4.799999999999997
    vertex 2.1999999999999997 -2.2000000000000015 4.799999999999997
  endloop
endfacet
facet normal 0.0 -1.0 -4.8185936868262085e-17
  outer loop
    vertex 37.400000000000006 -10.424998884140976 4.799999999999997
    vertex 35.2 -10.424998884140976 2.4999999999999973
    vertex 37.400000000000006 -10.424998884140976 2.4999999999999973
  endloop
endfacet
facet normal 0.0 -1.0 -4.8185936868262085e-17
  outer loop
    vertex 35.2 -10.424998884140976 2.4999999999999973
    vertex 37.400000000000006 -10.424998884140976 4.799999999999997
    vertex 35.2 -10.424998884140976 4.799999999999997
  endloop
endfacet
facet normal 0.0 -1.0 0.0
  outer loop
    vertex 2.1999999999999997 -20.9 4.799999999999997
    vertex 0.0 -20.9 2.499999999999997
    vertex 2.1999999999999997 -20.9 2.499999999999997
  endloop
endfacet
facet normal 0.0 -1.0 0.0
  outer loop
    vertex 0.0 -20.9 2.499999999999997
    vertex 2.1999999999999997 -20.9 4.799999999999997
    vertex 0.0 -20.9 4.799999999999997
  endloop
endfacet
facet normal 1.0 0.0 0.0
  outer loop
    vertex 2.1999999999999997 -2.2000000000000015 2.4999999999999982
    vertex 2.1999999999999997 -20.9 4.799999999999997
    vertex 2.1999999999999997 -20.9 2.499999999999997
  endloop
endfacet
facet normal 1.0 0.0 0.0
  outer loop
    vertex 2.1999999999999997 -20.9 4.799999999999997
    vertex 2.1999999999999997 -2.2000000000000015 2.4999999999999982
    vertex 2.1999999999999997 -2.2000000000000015 4.799999999999997
  endloop
endfacet
facet normal 0.0 1.0 -1.5325904796455972e-16
  outer loop
    vertex 0.0 -2.2000000000000015 4.799999999999997
    vertex 2.1999999999999997 -2.2000000000000015 2.4999999999999982
    vertex 0.0 -2.2000000000000015 2.4999999999999982
  endloop
endfacet
facet normal 0.0 1.0 -1.5325904796455972e-16
  outer loop
    vertex 2.1999999999999997 -2.2000000000000015 2.4999999999999982
    vertex 0.0 -2.2000000000000015 4.799999999999997
    vertex 2.1999999999999997 -2.2000000000000015 4.799999999999997
  endloop
endfacet
facet normal -2.9181568818793852e-18 -7.057487197226494e-17 1.0
  outer loop
    vertex 37.400000000000006 -25.7 4.799999999999996
    vertex 33.00000000000001 -23.499999999999993 4.799999999999996
    vertex 33.00000000000001 -25.7 4.799999999999996
  endloop
endfacet
facet normal -2.9181568818793852e-18 -7.057487197226494e-17 1.0
  outer loop
    vertex 33.00000000000001 -23.499999999999993 4.799999999999996
    vertex 37.400000000000006 -25.7 4.799999999999996
    vertex 35.2 -23.499999999999993 4.799999999999996
  endloop
endfacet
facet normal -2.9181568818793852e-18 -7.057487197226494e-17 1.0
  outer loop
    vertex 35.2 -23.499999999999993 4.799999999999996
    vertex 37.400000000000006 -25.7 4.799999999999996
    vertex 35.2 -18.299999999999994 4.799999999999997
  endloop
endfacet
facet normal -2.9181568818793852e-18 -7.057487197226494e-17 1.0
  outer loop
    vertex 35.2 -18.299999999999994 4.799999999999997
    vertex 37.400000000000006 -25.7 4.799999999999996
    vertex 37.400000000000006 -18.299999999999994 4.799999999999997
  endloop
endfacet
facet normal 0.0 -1.0 0.0
  outer loop
    vertex 39.60000000000001 -27.9 2.4999999999999964
    vertex 0.0 -27.9 -2.8199664825478975e-15
    vertex 39.60000000000001 -27.9 -2.8199664825478975e-15
  endloop
endfacet
facet normal 0.0 -1.0 0.0
  outer loop
    vertex 0.0 -27.9 -2.8199664825478975e-15
    vertex 39.60000000000001 -27.9 2.4999999999999964
    vertex 0.0 -27.9 2.4999999999999964
  endloop
endfacet
facet normal 0.0 7.580555060612629e-17 -1.0
  outer loop
    vertex 0.0 0.0 -7.049916206369744e-16
    vertex 5.4 -9.4 -7.049916206369744e-16
    vertex 0.0 -27.9 -2.8199664825478975e-15
  endloop
endfacet
facet normal 0.0 7.580555060612629e-17 -1.0
  outer loop
    vertex 5.4 -9.4 -7.049916206369744e-16
    vertex 0.0 0.0 -7.049916206369744e-16
    vertex 39.60000000000001 0.0 -7.049916206369744e-16
  endloop
endfacet
facet normal 0.0 7.580555060612629e-17 -1.0
  outer loop
    vertex 5.4 -9.4 -7.049916206369744e-16
    vertex 39.60000000000001 0.0 -7.049916206369744e-16
    vertex 28.9 -9.4 -7.049916206369744e-16
  endloop
endfacet
facet normal 0.0 7.580555060612629e-17 -1.0
  outer loop
    vertex 28.9 -9.4 -7.049916206369744e-16
    vertex 39.60000000000001 0.0 -7.049916206369744e-16
    vertex 28.9 -22.5 -1.4099832412739487e-15
  endloop
endfacet
facet normal 0.0 7.580555060612629e-17 -1.0
  outer loop
    vertex 0.0 -27.9 -2.8199664825478975e-15
    vertex 5.4 -22.5 -1.4099832412739487e-15
    vertex 39.60000000000001 -27.9 -2.8199664825478975e-15
  endloop
endfacet
facet normal 0.0 7.580555060612629e-17 -1.0
  outer loop
    vertex 5.4 -22.5 -1.4099832412739487e-15
    vertex 0.0 -27.9 -2.8199664825478975e-15
    vertex 5.4 -9.4 -7.049916206369744e-16
  endloop
endfacet
facet normal 0.0 7.580555060612629e-17 -1.0
  outer loop
    vertex 39.60000000000001 -27.9 -2.8199664825478975e-15
    vertex 5.4 -22.5 -1.4099832412739487e-15
    vertex 28.9 -22.5 -1.4099832412739487e-15
  endloop
endfacet
facet normal 0.0 7.580555060612629e-17 -1.0
  outer loop
    vertex 39.60000000000001 -27.9 -2.8199664825478975e-15
    vertex 28.9 -22.5 -1.4099832412739487e-15
    vertex 39.60000000000001 0.0 -7.049916206369744e-16
  endloop
endfacet
facet normal 1.0 0.0 0.0
  outer loop
    vertex 39.60000000000001 0.0 -7.049916206369744e-16
    vertex 39.60000000000001 -27.9 2.4999999999999964
    vertex 39.60000000000001 -27.9 -2.8199664825478975e-15
  endloop
endfacet
facet normal 1.0 0.0 0.0
  outer loop
    vertex 39.60000000000001 -27.9 2.4999999999999964
    vertex 39.60000000000001 0.0 -7.049916206369744e-16
    vertex 39.60000000000001 0.0 2.4999999999999982
  endloop
endfacet
facet normal 2.5395471080981465e-19 -6.70074648752864e-17 1.0
  outer loop
    vertex 0.0 -27.9 2.4999999999999964
    vertex 5.4 -22.5 2.499999999999999
    vertex 0.0 -20.9 2.499999999999997
  endloop
endfacet
facet normal 2.5395471080981465e-19 -6.70074648752864e-17 1.0
  outer loop
    vertex 5.4 -22.5 2.499999999999999
    vertex 0.0 -27.9 2.4999999999999964
    vertex 39.60000000000001 -27.9 2.4999999999999964
  endloop
endfacet
facet normal 2.5395471080981465e-19 -6.70074648752864e-17 1.0
  outer loop
    vertex 0.0 -20.9 2.499999999999997
    vertex 5.4 -22.5 2.499999999999999
    vertex 2.1999999999999997 -20.9 2.499999999999997
  endloop
endfacet
facet normal 2.5395471080981465e-19 -6.70074648752864e-17 1.0
  outer loop
    vertex 2.1999999999999997 -20.9 2.499999999999997
    vertex 5.4 -22.5 2.499999999999999
    vertex 2.1999999999999997 -2.2000000000000015 2.4999999999999982
  endloop
endfacet
facet normal 2.5395471080981465e-19 -6.70074648752864e-17 1.0
  outer loop
    vertex 5.4 -22.5 2.499999999999999
    vertex 39.60000000000001 -27.9 2.4999999999999964
    vertex 33.00000000000001 -25.7 2.4999999999999964
  endloop
endfacet
facet normal 2.5395471080981465e-19 -6.70074648752864e-17 1.0
  outer loop
    vertex 5.4 -22.5 2.499999999999999
    vertex 33.00000000000001 -25.7 2.4999999999999964
    vertex 28.9 -22.5 2.499999999999999
  endloop
endfacet
facet normal 2.5395471080981465e-19 -6.70074648752864e-17 1.0
  outer loop
    vertex 28.9 -22.5 2.499999999999999
    vertex 33.00000000000001 -25.7 2.4999999999999964
    vertex 28.9 -9.4 2.4999999999999996
  endloop
endfacet
facet normal 2.5395471080981465e-19 -6.70074648752864e-17 1.0
  outer loop
    vertex 33.00000000000001 -25.7 2.4999999999999964
    vertex 39.60000000000001 -27.9 2.4999999999999964
    vertex 37.400000000000006 -25.7 2.4999999999999964
  endloop
endfacet
facet normal 2.5395471080981465e-19 -6.70074648752864e-17 1.0
  outer loop
    vertex 37.400000000000006 -25.7 2.4999999999999964
    vertex 39.60000000000001 -27.9 2.4999999999999964
    vertex 37.400000000000006 -18.299999999999994 2.4999999999999973
  endloop
endfacet
facet normal 2.5395471080981465e-19 -6.70074648752864e-17 1.0
  outer loop
    vertex 37.400000000000006 -18.299999999999994 2.4999999999999973
    vertex 39.60000000000001 -27.9 2.4999999999999964
    vertex 37.400000000000006 -10.424998884140976 2.4999999999999973
  endloop
endfacet
facet normal 2.5395471080981465e-19 -6.70074648752864e-17 1.0
  outer loop
    vertex 37.400000000000006 -10.424998884140976 2.4999999999999973
    vertex 39.60000000000001 -27.9 2.4999999999999964
    vertex 37.400000000000006 -2.2000000000000015 2.4999999999999982
  endloop
endfacet
facet normal 2.5395471080981465e-19 -6.70074648752864e-17 1.0
  outer loop
    vertex 2.1999999999999997 -2.2000000000000015 2.4999999999999982
    vertex 0.0 0.0 2.4999999999999982
    vertex 0.0 -2.2000000000000015 2.4999999999999982
  endloop
endfacet
facet normal 2.5395471080981465e-19 -6.70074648752864e-17 1.0
  outer loop
    vertex 0.0 0.0 2.4999999999999982
    vertex 2.1999999999999997 -2.2000000000000015 2.4999999999999982
    vertex 39.60000000000001 0.0 2.4999999999999982
  endloop
endfacet
facet normal 2.5395471080981465e-19 -6.70074648752864e-17 1.0
  outer loop
    vertex 39.60000000000001 0.0 2.4999999999999982
    vertex 2.1999999999999997 -2.2000000000000015 2.4999999999999982
    vertex 5.4 -9.4 2.4999999999999996
  endloop
endfacet
facet normal 2.5395471080981465e-19 -6.70074648752864e-17 1.0
  outer loop
    vertex 5.4 -9.4 2.4999999999999996
    vertex 2.1999999999999997 -2.2000000000000015 2.4999999999999982
    vertex 5.4 -22.5 2.499999999999999
  endloop
endfacet
facet normal 2.5395471080981465e-19 -6.70074648752864e-17 1.0
  outer loop
    vertex 39.60000000000001 0.0 2.4999999999999982
    vertex 5.4 -9.4 2.4999999999999996
    vertex 33.00000000000001 -2.2000000000000015 2.4999999999999982
  endloop
endfacet
facet normal 2.5395471080981465e-19 -6.70074648752864e-17 1.0
  outer loop
    vertex 33.00000000000001 -2.2000000000000015 2.4999999999999982
    vertex 5.4 -9.4 2.4999999999999996
    vertex 28.9 -9.4 2.4999999999999996
  endloop
endfacet
facet normal 2.5395471080981465e-19 -6.70074648752864e-17 1.0
  outer loop
    vertex 33.00000000000001 -2.2000000000000015 2.4999999999999982
    vertex 28.9 -9.4 2.4999999999999996
    vertex 33.00000000000001 -25.7 2.4999999999999964
  endloop
endfacet
facet normal 2.5395471080981465e-19 -6.70074648752864e-17 1.0
  outer loop
    vertex 33.00000000000001 -2.2000000000000015 2.4999999999999982
    vertex 33.00000000000001 -25.7 2.4999999999999964
    vertex 33.00000000000001 -23.499999999999993 2.499999999999997
  endloop
endfacet
facet normal 2.5395471080981465e-19 -6.70074648752864e-17 1.0
  outer loop
    vertex 33.00000000000001 -2.2000000000000015 2.4999999999999982
    vertex 33.00000000000001 -23.499999999999993 2.499999999999997
    vertex 33.00000000000001 -4.4 2.499999999999998
  endloop
endfacet
facet normal 2.5395471080981465e-19 -6.70074648752864e-17 1.0
  outer loop
    vertex 39.60000000000001 0.0 2.4999999999999982
    vertex 33.00000000000001 -2.2000000000000015 2.4999999999999982
    vertex 37.400000000000006 -2.2000000000000015 2.4999999999999982
  endloop
endfacet
facet normal 2.5395471080981465e-19 -6.70074648752864e-17 1.0
  outer loop
    vertex 39.60000000000001 0.0 2.4999999999999982
    vertex 37.400000000000006 -2.2000000000000015 2.4999999999999982
    vertex 39.60000000000001 -27.9 2.4999999999999964
  endloop
endfacet
facet normal 2.5395471080981465e-19 -6.70074648752864e-17 1.0
  outer loop
    vertex 37.400000000000006 -18.299999999999994 2.4999999999999973
    vertex 35.2 -10.424998884140976 2.4999999999999973
    vertex 35.2 -18.299999999999994 2.4999999999999973
  endloop
endfacet
facet normal 2.5395471080981465e-19 -6.70074648752864e-17 1.0
  outer loop
    vertex 35.2 -10.424998884140976 2.4999999999999973
    vertex 37.400000000000006 -18.299999999999994 2.4999999999999973
    vertex 37.400000000000006 -10.424998884140976 2.4999999999999973
  endloop
endfacet
facet normal 2.5395471080981465e-19 -6.70074648752864e-17 1.0
  outer loop
    vertex 35.2 -23.499999999999993 2.499999999999997
    vertex 33.00000000000001 -4.4 2.499999999999998
    vertex 33.00000000000001 -23.499999999999993 2.499999999999997
  endloop
endfacet
facet normal 2.5395471080981465e-19 -6.70074648752864e-17 1.0
  outer loop
    vertex 33.00000000000001 -4.4 2.499999999999998
    vertex 35.2 -23.499999999999993 2.499999999999997
    vertex 35.2 -4.4 2.499999999999998
  endloop
endfacet
facet normal 2.5395471080981465e-19 -6.70074648752864e-17 1.0
  outer loop
    vertex 35.2 -4.4 2.499999999999998
    vertex 35.2 -23.499999999999993 2.499999999999997
    vertex 35.2 -18.299999999999994 2.4999999999999973
  endloop
endfacet
facet normal 2.5395471080981465e-19 -6.70074648752864e-17 1.0
  outer loop
    vertex 35.2 -4.4 2.499999999999998
    vertex 35.2 -18.299999999999994 2.4999999999999973
    vertex 35.2 -10.424998884140976 2.4999999999999973
  endloop
endfacet
facet normal 0.0 1.0 6.245004513516502e-17
  outer loop
    vertex 0.0 0.0 2.4999999999999982
    vertex 39.60000000000001 0.0 -7.049916206369744e-16
    vertex 0.0 0.0 -7.049916206369744e-16
  endloop
endfacet
facet normal 0.0 1.0 6.245004513516502e-17
  outer loop
    vertex 39.60000000000001 0.0 -7.049916206369744e-16
    vertex 0.0 0.0 2.4999999999999982
    vertex 39.60000000000001 0.0 2.4999999999999982
  endloop
endfacet
facet normal -1.0 0.0 0.0
  outer loop
    vertex 0.0 -2.2000000000000015 4.799999999999997
    vertex 0.0 -20.9 2.499999999999997
    vertex 0.0 -20.9 4.799999999999997
  endloop
endfacet
facet normal -1.0 0.0 0.0
  outer loop
    vertex 0.0 -20.9 2.499999999999997
    vertex 0.0 -27.9 -2.8199664825478975e-15
    vertex 0.0 -27.9 2.4999999999999964
  endloop
endfacet
facet normal -1.0 0.0 0.0
  outer loop
    vertex 0.0 -27.9 -2.8199664825478975e-15
    vertex 0.0 -20.9 2.499999999999997
    vertex 0.0 0.0 -7.049916206369744e-16
  endloop
endfacet
facet normal -1.0 0.0 0.0
  outer loop
    vertex 0.0 0.0 -7.049916206369744e-16
    vertex 0.0 -20.9 2.499999999999997
    vertex 0.0 -2.2000000000000015 2.4999999999999982
  endloop
endfacet
facet normal -1.0 0.0 0.0
  outer loop
    vertex 0.0 -2.2000000000000015 2.4999999999999982
    vertex 0.0 -20.9 2.499999999999997
    vertex 0.0 -2.2000000000000015 4.799999999999997
  endloop
endfacet
facet normal -1.0 0.0 0.0
  outer loop
    vertex 0.0 0.0 -7.049916206369744e-16
    vertex 0.0 -2.2000000000000015 2.4999999999999982
    vertex 0.0 0.0 2.4999999999999982
  endloop
endfacet
facet normal 0.0 -1.0 0.0
  outer loop
    vertex 28.9 -9.4 2.4999999999999996
    vertex 5.4 -9.4 -7.049916206369744e-16
    vertex 28.9 -9.4 -7.049916206369744e-16
  endloop
endfacet
facet normal 0.0 -1.0 0.0
  outer loop
    vertex 5.4 -9.4 -7.049916206369744e-16
    vertex 28.9 -9.4 2.4999999999999996
    vertex 5.4 -9.4 2.4999999999999996
  endloop
endfacet
facet normal 1.0 0.0 0.0
  outer loop
    vertex 5.4 -9.4 -7.049916206369744e-16
    vertex 5.4 -22.5 2.499999999999999
    vertex 5.4 -22.5 -1.4099832412739487e-15
  endloop
endfacet
facet normal 1.0 0.0 0.0
  outer loop
    vertex 5.4 -22.5 2.499999999999999
    vertex 5.4 -9.4 -7.049916206369744e-16
    vertex 5.4 -9.4 2.4999999999999996
  endloop
endfacet
facet normal -1.0 0.0 0.0
  outer loop
    vertex 28.9 -9.4 2.4999999999999996
    vertex 28.9 -22.5 -1.4099832412739487e-15
    vertex 28.9 -22.5 2.499999999999999
  endloop
endfacet
facet normal -1.0 0.0 0.0
  outer loop
    vertex 28.9 -22.5 -1.4099832412739487e-15
    vertex 28.9 -9.4 2.4999999999999996
    vertex 28.9 -9.4 -7.049916206369744e-16
  endloop
endfacet
facet normal 0.0 1.0 0.0
  outer loop
    vertex 5.4 -22.5 2.499999999999999
    vertex 28.9 -22.5 -1.4099832412739487e-15
    vertex 5.4 -22.5 -1.4099832412739487e-15
  endloop
endfacet
facet normal 0.0 1.0 0.0
  outer loop
    vertex 28.9 -22.5 -1.4099832412739487e-15
    vertex 5.4 -22.5 2.499999999999999
    vertex 28.9 -22.5 2.499999999999999
  endloop
endfacet
endsolid liposensor
