solid vtx
facet normal -1.0 0.0 0.0
  outer loop
    vertex 8.799999999999995 14.2 3.2999999999999994
    vertex 8.799999999999995 16.4 2.1999999999999997
    vertex 8.799999999999995 13.099999999999998 2.199999999999999
  endloop
endfacet
facet normal -1.0 0.0 0.0
  outer loop
    vertex 8.799999999999995 16.4 2.1999999999999997
    vertex 8.799999999999995 14.2 3.2999999999999994
    vertex 8.799999999999995 19.4 3.2999999999999994
  endloop
endfacet
facet normal -1.0 0.0 0.0
  outer loop
    vertex 8.799999999999995 16.4 2.1999999999999997
    vertex 8.799999999999995 19.4 3.2999999999999994
    vertex 8.799999999999995 16.4 1.0999999999999996
  endloop
endfacet
facet normal -1.0 0.0 0.0
  outer loop
    vertex 8.799999999999995 16.4 1.0999999999999996
    vertex 8.799999999999995 19.4 3.2999999999999994
    vertex 8.799999999999995 19.4 1.0999999999999999
  endloop
endfacet
facet normal -0.0 1.0 -0.0
  outer loop
    vertex 0.0 4.6 2.1999999999999997
    vertex 7.3999999999999995 4.6 0.0
    vertex 0.0 4.6 0.0
  endloop
endfacet
facet normal -0.0 1.0 -0.0
  outer loop
    vertex 7.3999999999999995 4.6 0.0
    vertex 0.0 4.6 2.1999999999999997
    vertex 7.3999999999999995 4.6 2.1999999999999997
  endloop
endfacet
facet normal -1.0 -1.7194917576511571e-16 -0.0
  outer loop
    vertex 7.399999999999998 12.799999999999999 2.1999999999999997
    vertex 7.3999999999999995 4.6 0.0
    vertex 7.3999999999999995 4.6 2.1999999999999997
  endloop
endfacet
facet normal -1.0 -1.7194917576511571e-16 -0.0
  outer loop
    vertex 7.3999999999999995 4.6 0.0
    vertex 7.399999999999998 12.799999999999999 2.1999999999999997
    vertex 7.399999999999998 12.799999999999999 0.0
  endloop
endfacet
facet normal 0.0 -1.0 0.0
  outer loop
    vertex 7.399999999999998 12.799999999999999 2.1999999999999997
    vertex 0.0 12.799999999999999 0.0
    vertex 7.399999999999998 12.799999999999999 0.0
  endloop
endfacet
facet normal 0.0 -1.0 0.0
  outer loop
    vertex 0.0 12.799999999999999 0.0
    vertex 7.399999999999998 12.799999999999999 2.1999999999999997
    vertex 0.0 12.799999999999999 2.1999999999999997
  endloop
endfacet
facet normal 0.0 -0.7071067811865476 0.7071067811865476
  outer loop
    vertex 14.399999999999993 14.2 3.2999999999999994
    vertex 8.799999999999995 13.099999999999998 2.199999999999999
    vertex 14.399999999999993 13.099999999999998 2.199999999999999
  endloop
endfacet
facet normal 0.0 -0.7071067811865476 0.7071067811865476
  outer loop
    vertex 8.799999999999995 13.099999999999998 2.199999999999999
    vertex 14.399999999999993 14.2 3.2999999999999994
    vertex 8.799999999999995 14.2 3.2999999999999994
  endloop
endfacet
facet normal 0.0 -0.0 1.0
  outer loop
    vertex 14.399999999999993 14.2 3.2999999999999994
    vertex 8.799999999999995 19.4 3.2999999999999994
    vertex 8.799999999999995 14.2 3.2999999999999994
  endloop
endfacet
facet normal 0.0 -0.0 1.0
  outer loop
    vertex 8.799999999999995 19.4 3.2999999999999994
    vertex 14.399999999999993 14.2 3.2999999999999994
    vertex 14.399999999999993 19.4 3.2999999999999994
  endloop
endfacet
facet normal -0.0 1.0 -0.0
  outer loop
    vertex 8.799999999999995 19.4 3.2999999999999994
    vertex 14.399999999999997 19.4 1.0999999999999999
    vertex 8.799999999999995 19.4 1.0999999999999999
  endloop
endfacet
facet normal -0.0 1.0 -0.0
  outer loop
    vertex 14.399999999999997 19.4 1.0999999999999999
    vertex 8.799999999999995 19.4 3.2999999999999994
    vertex 14.399999999999993 19.4 3.2999999999999994
  endloop
endfacet
facet normal 0.0 0.0 -1.0
  outer loop
    vertex 8.799999999999995 14.2 0.0
    vertex 0.0 12.799999999999999 0.0
    vertex 0.0 14.2 0.0
  endloop
endfacet
facet normal 0.0 0.0 -1.0
  outer loop
    vertex 0.0 12.799999999999999 0.0
    vertex 8.799999999999995 14.2 0.0
    vertex 7.399999999999998 12.799999999999999 0.0
  endloop
endfacet
facet normal 0.0 0.0 -1.0
  outer loop
    vertex 7.399999999999998 12.799999999999999 0.0
    vertex 8.799999999999995 14.2 0.0
    vertex 7.3999999999999995 4.6 0.0
  endloop
endfacet
facet normal 0.0 0.0 -1.0
  outer loop
    vertex 7.3999999999999995 4.6 0.0
    vertex 0.0 0.0 0.0
    vertex 0.0 4.6 0.0
  endloop
endfacet
facet normal 0.0 0.0 -1.0
  outer loop
    vertex 0.0 0.0 0.0
    vertex 7.3999999999999995 4.6 0.0
    vertex 13.299999999999999 0.0 0.0
  endloop
endfacet
facet normal 0.0 0.0 -1.0
  outer loop
    vertex 13.299999999999999 0.0 0.0
    vertex 7.3999999999999995 4.6 0.0
    vertex 8.799999999999995 14.2 0.0
  endloop
endfacet
facet normal 0.0 0.0 -1.0
  outer loop
    vertex 13.299999999999999 0.0 0.0
    vertex 8.799999999999995 14.2 0.0
    vertex 14.399999999999997 14.2 0.0
  endloop
endfacet
facet normal 0.0 0.0 -1.0
  outer loop
    vertex 13.299999999999999 0.0 0.0
    vertex 14.399999999999997 14.2 0.0
    vertex 13.299999999999999 -2.1999999999999997 0.0
  endloop
endfacet
facet normal 0.0 0.0 -1.0
  outer loop
    vertex 13.299999999999999 -2.1999999999999997 0.0
    vertex 14.399999999999997 14.2 0.0
    vertex 19.999999999999996 -2.1999999999999997 0.0
  endloop
endfacet
facet normal 0.0 0.0 -1.0
  outer loop
    vertex 19.999999999999996 -2.1999999999999997 0.0
    vertex 14.399999999999997 14.2 0.0
    vertex 19.999999999999996 14.2 0.0
  endloop
endfacet
facet normal 0.0 1.2393450029702569e-17 -1.0
  outer loop
    vertex 14.399999999999997 19.4 1.0999999999999999
    vertex 8.799999999999995 16.4 1.0999999999999996
    vertex 8.799999999999995 19.4 1.0999999999999999
  endloop
endfacet
facet normal 0.0 1.2393450029702569e-17 -1.0
  outer loop
    vertex 8.799999999999995 16.4 1.0999999999999996
    vertex 14.399999999999997 19.4 1.0999999999999999
    vertex 8.799999999999995 15.3 1.0999999999999999
  endloop
endfacet
facet normal 0.0 1.2393450029702569e-17 -1.0
  outer loop
    vertex 8.799999999999995 15.3 1.0999999999999999
    vertex 14.399999999999997 19.4 1.0999999999999999
    vertex 14.399999999999997 15.3 1.0999999999999999
  endloop
endfacet
facet normal 0.0 1.2393450029702569e-17 -1.0
  outer loop
    vertex 14.399999999999997 15.3 1.0999999999999999
    vertex 14.399999999999997 19.4 1.0999999999999999
    vertex 14.399999999999997 16.4 1.0999999999999996
  endloop
endfacet
facet normal 0.0 0.7071067811865472 -0.7071067811865479
  outer loop
    vertex 14.399999999999997 15.3 1.0999999999999999
    vertex 8.799999999999995 14.2 0.0
    vertex 8.799999999999995 15.3 1.0999999999999999
  endloop
endfacet
facet normal 0.0 0.7071067811865472 -0.7071067811865479
  outer loop
    vertex 8.799999999999995 14.2 0.0
    vertex 14.399999999999997 15.3 1.0999999999999999
    vertex 14.399999999999997 14.2 0.0
  endloop
endfacet
facet normal 0.0 0.0 -1.0
  outer loop
    vertex 22.199999999999996 16.4 -3.1
    vertex 14.399999999999997 14.2 -3.1
    vertex 14.399999999999997 16.4 -3.1
  endloop
endfacet
facet normal 0.0 0.0 -1.0
  outer loop
    vertex 14.399999999999997 14.2 -3.1
    vertex 22.199999999999996 16.4 -3.1
    vertex 19.999999999999996 14.2 -3.1
  endloop
endfacet
facet normal 0.0 0.0 -1.0
  outer loop
    vertex 19.999999999999996 14.2 -3.1
    vertex 22.199999999999996 16.4 -3.1
    vertex 19.999999999999996 11.2 -3.1
  endloop
endfacet
facet normal 0.0 0.0 -1.0
  outer loop
    vertex 19.999999999999996 11.2 -3.1
    vertex 22.199999999999996 16.4 -3.1
    vertex 19.999999999999996 9.2 -3.1
  endloop
endfacet
facet normal 0.0 0.0 -1.0
  outer loop
    vertex 19.999999999999996 9.2 -3.1
    vertex 22.199999999999996 16.4 -3.1
    vertex 19.999999999999996 4.999999999999999 -3.1
  endloop
endfacet
facet normal 0.0 0.0 -1.0
  outer loop
    vertex 19.999999999999996 4.999999999999999 -3.1
    vertex 22.199999999999996 16.4 -3.1
    vertex 19.999999999999996 3.0 -3.1
  endloop
endfacet
facet normal 0.0 0.0 -1.0
  outer loop
    vertex 19.999999999999996 3.0 -3.1
    vertex 22.199999999999996 16.4 -3.1
    vertex 19.999999999999996 -2.1999999999999997 -3.1
  endloop
endfacet
facet normal 0.0 0.0 -1.0
  outer loop
    vertex 19.999999999999996 -2.1999999999999997 -3.1
    vertex 22.199999999999996 16.4 -3.1
    vertex 22.199999999999996 -2.1999999999999997 -3.1
  endloop
endfacet
facet normal 0.0 0.0 -1.0
  outer loop
    vertex 19.999999999999996 4.999999999999999 -3.1
    vertex 18.499999999999996 3.0 -3.1
    vertex 18.499999999999996 4.999999999999999 -3.1
  endloop
endfacet
facet normal 0.0 0.0 -1.0
  outer loop
    vertex 18.499999999999996 3.0 -3.1
    vertex 19.999999999999996 4.999999999999999 -3.1
    vertex 19.999999999999996 3.0 -3.1
  endloop
endfacet
facet normal 0.0 0.0 -1.0
  outer loop
    vertex 19.999999999999996 11.2 -3.1
    vertex 18.499999999999996 9.2 -3.1
    vertex 18.499999999999996 11.2 -3.1
  endloop
endfacet
facet normal 0.0 0.0 -1.0
  outer loop
    vertex 18.499999999999996 9.2 -3.1
    vertex 19.999999999999996 11.2 -3.1
    vertex 19.999999999999996 9.2 -3.1
  endloop
endfacet
facet normal 1.0 -0.0 -0.0
  outer loop
    vertex 0.0 9.2 -3.1
    vertex 0.0 4.999999999999999 -2.100000000000002
    vertex 0.0 4.999999999999999 -3.1
  endloop
endfacet
facet normal 1.0 -0.0 -0.0
  outer loop
    vertex 0.0 14.2 -3.1
    vertex 0.0 11.2 -2.100000000000002
    vertex 0.0 11.2 -3.1
  endloop
endfacet
facet normal 1.0 -0.0 -0.0
  outer loop
    vertex 0.0 11.2 -2.100000000000002
    vertex 0.0 14.2 -3.1
    vertex 0.0 12.799999999999999 0.0
  endloop
endfacet
facet normal 1.0 -0.0 -0.0
  outer loop
    vertex 0.0 12.799999999999999 0.0
    vertex 0.0 14.2 -3.1
    vertex 0.0 14.2 0.0
  endloop
endfacet
facet normal 1.0 -0.0 -0.0
  outer loop
    vertex 0.0 3.0 -3.1
    vertex 0.0 0.0 0.0
    vertex 0.0 0.0 -3.1
  endloop
endfacet
facet normal 1.0 -0.0 -0.0
  outer loop
    vertex 0.0 0.0 0.0
    vertex 0.0 3.0 -3.1
    vertex 0.0 3.0 -2.100000000000002
  endloop
endfacet
facet normal 1.0 -0.0 -0.0
  outer loop
    vertex 0.0 0.0 0.0
    vertex 0.0 3.0 -2.100000000000002
    vertex 0.0 4.6 0.0
  endloop
endfacet
facet normal 1.0 -0.0 -0.0
  outer loop
    vertex 0.0 4.6 0.0
    vertex 0.0 3.0 -2.100000000000002
    vertex 0.0 4.999999999999999 -2.100000000000002
  endloop
endfacet
facet normal 1.0 -0.0 -0.0
  outer loop
    vertex 0.0 4.6 0.0
    vertex 0.0 4.999999999999999 -2.100000000000002
    vertex 0.0 4.6 2.1999999999999997
  endloop
endfacet
facet normal 1.0 -0.0 -0.0
  outer loop
    vertex 0.0 4.6 2.1999999999999997
    vertex 0.0 4.999999999999999 -2.100000000000002
    vertex 0.0 12.799999999999999 2.1999999999999997
  endloop
endfacet
facet normal 1.0 -0.0 -0.0
  outer loop
    vertex 0.0 12.799999999999999 2.1999999999999997
    vertex 0.0 4.999999999999999 -2.100000000000002
    vertex 0.0 9.2 -2.100000000000002
  endloop
endfacet
facet normal 1.0 -0.0 -0.0
  outer loop
    vertex 0.0 9.2 -2.100000000000002
    vertex 0.0 4.999999999999999 -2.100000000000002
    vertex 0.0 9.2 -3.1
  endloop
endfacet
facet normal 1.0 -0.0 -0.0
  outer loop
    vertex 0.0 12.799999999999999 2.1999999999999997
    vertex 0.0 9.2 -2.100000000000002
    vertex 0.0 11.2 -2.100000000000002
  endloop
endfacet
facet normal 1.0 -0.0 -0.0
  outer loop
    vertex 0.0 12.799999999999999 2.1999999999999997
    vertex 0.0 11.2 -2.100000000000002
    vertex 0.0 12.799999999999999 0.0
  endloop
endfacet
facet normal -1.0 0.0 0.0
  outer loop
    vertex 19.999999999999996 -2.1999999999999997 0.0
    vertex 19.999999999999996 3.0 -2.100000000000002
    vertex 19.999999999999996 -2.1999999999999997 -3.1
  endloop
endfacet
facet normal -1.0 0.0 0.0
  outer loop
    vertex 19.999999999999996 3.0 -2.100000000000002
    vertex 19.999999999999996 -2.1999999999999997 0.0
    vertex 19.999999999999996 14.2 0.0
  endloop
endfacet
facet normal -1.0 0.0 0.0
  outer loop
    vertex 19.999999999999996 3.0 -2.100000000000002
    vertex 19.999999999999996 14.2 0.0
    vertex 19.999999999999996 4.999999999999999 -2.100000000000002
  endloop
endfacet
facet normal -1.0 0.0 0.0
  outer loop
    vertex 19.999999999999996 4.999999999999999 -2.100000000000002
    vertex 19.999999999999996 14.2 0.0
    vertex 19.999999999999996 4.999999999999999 -3.1
  endloop
endfacet
facet normal -1.0 0.0 0.0
  outer loop
    vertex 19.999999999999996 4.999999999999999 -3.1
    vertex 19.999999999999996 14.2 0.0
    vertex 19.999999999999996 9.2 -2.100000000000002
  endloop
endfacet
facet normal -1.0 0.0 0.0
  outer loop
    vertex 19.999999999999996 9.2 -2.100000000000002
    vertex 19.999999999999996 14.2 0.0
    vertex 19.999999999999996 11.2 -2.100000000000002
  endloop
endfacet
facet normal -1.0 0.0 0.0
  outer loop
    vertex 19.999999999999996 11.2 -2.100000000000002
    vertex 19.999999999999996 14.2 0.0
    vertex 19.999999999999996 11.2 -3.1
  endloop
endfacet
facet normal -1.0 0.0 0.0
  outer loop
    vertex 19.999999999999996 11.2 -3.1
    vertex 19.999999999999996 14.2 0.0
    vertex 19.999999999999996 14.2 -3.1
  endloop
endfacet
facet normal -1.0 0.0 0.0
  outer loop
    vertex 19.999999999999996 9.2 -3.1
    vertex 19.999999999999996 4.999999999999999 -3.1
    vertex 19.999999999999996 9.2 -2.100000000000002
  endloop
endfacet
facet normal -1.0 0.0 0.0
  outer loop
    vertex 19.999999999999996 3.0 -3.1
    vertex 19.999999999999996 -2.1999999999999997 -3.1
    vertex 19.999999999999996 3.0 -2.100000000000002
  endloop
endfacet
facet normal -0.0 -1.0 -0.0
  outer loop
    vertex 19.999999999999996 14.2 0.0
    vertex 14.399999999999997 14.2 -3.1
    vertex 19.999999999999996 14.2 -3.1
  endloop
endfacet
facet normal -0.0 -1.0 -0.0
  outer loop
    vertex 14.399999999999997 14.2 -3.1
    vertex 19.999999999999996 14.2 0.0
    vertex 14.399999999999997 14.2 0.0
  endloop
endfacet
facet normal -1.0 0.0 0.0
  outer loop
    vertex 14.399999999999997 15.3 1.0999999999999999
    vertex 14.399999999999997 14.2 -3.1
    vertex 14.399999999999997 14.2 0.0
  endloop
endfacet
facet normal -1.0 0.0 0.0
  outer loop
    vertex 14.399999999999997 14.2 -3.1
    vertex 14.399999999999997 15.3 1.0999999999999999
    vertex 14.399999999999997 16.4 -3.1
  endloop
endfacet
facet normal -1.0 0.0 0.0
  outer loop
    vertex 14.399999999999997 16.4 -3.1
    vertex 14.399999999999997 15.3 1.0999999999999999
    vertex 14.399999999999997 16.4 1.0999999999999996
  endloop
endfacet
facet normal 1.0 0.0 0.0
  outer loop
    vertex 22.199999999999996 16.4 -3.1
    vertex 22.199999999999996 -2.1999999999999997 2.1999999999999997
    vertex 22.199999999999996 -2.1999999999999997 -3.1
  endloop
endfacet
facet normal 1.0 0.0 0.0
  outer loop
    vertex 22.199999999999996 -2.1999999999999997 2.1999999999999997
    vertex 22.199999999999996 16.4 -3.1
    vertex 22.199999999999996 16.4 2.1999999999999997
  endloop
endfacet
facet normal 0.0 -1.0 0.0
  outer loop
    vertex 22.199999999999996 -2.1999999999999997 2.1999999999999997
    vertex 19.999999999999996 -2.1999999999999997 -3.1
    vertex 22.199999999999996 -2.1999999999999997 -3.1
  endloop
endfacet
facet normal 0.0 -1.0 0.0
  outer loop
    vertex 19.999999999999996 -2.1999999999999997 -3.1
    vertex 22.199999999999996 -2.1999999999999997 2.1999999999999997
    vertex 19.999999999999996 -2.1999999999999997 0.0
  endloop
endfacet
facet normal 0.0 -1.0 0.0
  outer loop
    vertex 19.999999999999996 -2.1999999999999997 0.0
    vertex 22.199999999999996 -2.1999999999999997 2.1999999999999997
    vertex 13.299999999999999 -2.1999999999999997 0.0
  endloop
endfacet
facet normal 0.0 -1.0 0.0
  outer loop
    vertex 13.299999999999999 -2.1999999999999997 0.0
    vertex -2.1999999999999997 -2.1999999999999997 -3.1
    vertex 13.299999999999999 -2.1999999999999997 -3.1
  endloop
endfacet
facet normal 0.0 -1.0 0.0
  outer loop
    vertex -2.1999999999999997 -2.1999999999999997 -3.1
    vertex 13.299999999999999 -2.1999999999999997 0.0
    vertex -2.1999999999999997 -2.1999999999999997 2.1999999999999997
  endloop
endfacet
facet normal 0.0 -1.0 0.0
  outer loop
    vertex -2.1999999999999997 -2.1999999999999997 2.1999999999999997
    vertex 13.299999999999999 -2.1999999999999997 0.0
    vertex 22.199999999999996 -2.1999999999999997 2.1999999999999997
  endloop
endfacet
facet normal -1.0 0.0 0.0
  outer loop
    vertex -2.1999999999999997 16.4 2.1999999999999997
    vertex -2.1999999999999997 -2.1999999999999997 -3.1
    vertex -2.1999999999999997 -2.1999999999999997 2.1999999999999997
  endloop
endfacet
facet normal -1.0 0.0 0.0
  outer loop
    vertex -2.1999999999999997 -2.1999999999999997 -3.1
    vertex -2.1999999999999997 16.4 2.1999999999999997
    vertex -2.1999999999999997 16.4 -3.1
  endloop
endfacet
facet normal -0.0 1.0 -0.0
  outer loop
    vertex -2.1999999999999997 16.4 2.1999999999999997
    vertex 1.2 16.4 -3.1
    vertex -2.1999999999999997 16.4 -3.1
  endloop
endfacet
facet normal -0.0 1.0 -0.0
  outer loop
    vertex 1.2 16.4 -3.1
    vertex -2.1999999999999997 16.4 2.1999999999999997
    vertex 1.2 16.4 -1.4000000000000012
  endloop
endfacet
facet normal -0.0 1.0 -0.0
  outer loop
    vertex 1.2 16.4 -1.4000000000000012
    vertex -2.1999999999999997 16.4 2.1999999999999997
    vertex 4.199999999999999 16.4 -1.4000000000000012
  endloop
endfacet
facet normal -0.0 1.0 -0.0
  outer loop
    vertex 4.199999999999999 16.4 -1.4000000000000012
    vertex -2.1999999999999997 16.4 2.1999999999999997
    vertex 8.799999999999995 16.4 1.0999999999999996
  endloop
endfacet
facet normal -0.0 1.0 -0.0
  outer loop
    vertex 8.799999999999995 16.4 1.0999999999999996
    vertex -2.1999999999999997 16.4 2.1999999999999997
    vertex 8.799999999999995 16.4 2.1999999999999997
  endloop
endfacet
facet normal -0.0 1.0 -0.0
  outer loop
    vertex 4.199999999999999 16.4 -1.4000000000000012
    vertex 8.799999999999995 16.4 -3.1
    vertex 4.199999999999999 16.4 -3.1
  endloop
endfacet
facet normal -0.0 1.0 -0.0
  outer loop
    vertex 8.799999999999995 16.4 -3.1
    vertex 4.199999999999999 16.4 -1.4000000000000012
    vertex 8.799999999999995 16.4 1.0999999999999996
  endloop
endfacet
facet normal -0.0 -1.0 -0.0
  outer loop
    vertex 8.799999999999995 14.2 0.0
    vertex 4.199999999999999 14.2 -3.1
    vertex 8.799999999999995 14.2 -3.1
  endloop
endfacet
facet normal -0.0 -1.0 -0.0
  outer loop
    vertex 4.199999999999999 14.2 -3.1
    vertex 8.799999999999995 14.2 0.0
    vertex 4.199999999999999 14.2 -1.4000000000000012
  endloop
endfacet
facet normal -0.0 -1.0 -0.0
  outer loop
    vertex 4.199999999999999 14.2 -1.4000000000000012
    vertex 8.799999999999995 14.2 0.0
    vertex 1.2 14.2 -1.4000000000000012
  endloop
endfacet
facet normal -0.0 -1.0 -0.0
  outer loop
    vertex 1.2 14.2 -1.4000000000000012
    vertex 0.0 14.2 -3.1
    vertex 1.2 14.2 -3.1
  endloop
endfacet
facet normal -0.0 -1.0 -0.0
  outer loop
    vertex 0.0 14.2 -3.1
    vertex 1.2 14.2 -1.4000000000000012
    vertex 0.0 14.2 0.0
  endloop
endfacet
facet normal -0.0 -1.0 -0.0
  outer loop
    vertex 0.0 14.2 0.0
    vertex 1.2 14.2 -1.4000000000000012
    vertex 8.799999999999995 14.2 0.0
  endloop
endfacet
facet normal 8.313493035209397e-18 5.3417047238361464e-18 1.0
  outer loop
    vertex -2.1999999999999997 -2.1999999999999997 2.1999999999999997
    vertex 0.0 4.6 2.1999999999999997
    vertex -2.1999999999999997 16.4 2.1999999999999997
  endloop
endfacet
facet normal 8.313493035209397e-18 5.3417047238361464e-18 1.0
  outer loop
    vertex 0.0 4.6 2.1999999999999997
    vertex -2.1999999999999997 -2.1999999999999997 2.1999999999999997
    vertex 22.199999999999996 -2.1999999999999997 2.1999999999999997
  endloop
endfacet
facet normal 8.313493035209397e-18 5.3417047238361464e-18 1.0
  outer loop
    vertex 0.0 4.6 2.1999999999999997
    vertex 22.199999999999996 -2.1999999999999997 2.1999999999999997
    vertex 7.3999999999999995 4.6 2.1999999999999997
  endloop
endfacet
facet normal 8.313493035209397e-18 5.3417047238361464e-18 1.0
  outer loop
    vertex 7.3999999999999995 4.6 2.1999999999999997
    vertex 22.199999999999996 -2.1999999999999997 2.1999999999999997
    vertex 8.799999999999995 13.099999999999998 2.199999999999999
  endloop
endfacet
facet normal 8.313493035209397e-18 5.3417047238361464e-18 1.0
  outer loop
    vertex 8.799999999999995 13.099999999999998 2.199999999999999
    vertex 22.199999999999996 -2.1999999999999997 2.1999999999999997
    vertex 14.399999999999993 13.099999999999998 2.199999999999999
  endloop
endfacet
facet normal 8.313493035209397e-18 5.3417047238361464e-18 1.0
  outer loop
    vertex 14.399999999999993 13.099999999999998 2.199999999999999
    vertex 22.199999999999996 -2.1999999999999997 2.1999999999999997
    vertex 14.399999999999997 16.4 2.1999999999999997
  endloop
endfacet
facet normal 8.313493035209397e-18 5.3417047238361464e-18 1.0
  outer loop
    vertex 14.399999999999997 16.4 2.1999999999999997
    vertex 22.199999999999996 -2.1999999999999997 2.1999999999999997
    vertex 22.199999999999996 16.4 2.1999999999999997
  endloop
endfacet
facet normal 8.313493035209397e-18 5.3417047238361464e-18 1.0
  outer loop
    vertex -2.1999999999999997 16.4 2.1999999999999997
    vertex 0.0 12.799999999999999 2.1999999999999997
    vertex 8.799999999999995 16.4 2.1999999999999997
  endloop
endfacet
facet normal 8.313493035209397e-18 5.3417047238361464e-18 1.0
  outer loop
    vertex 0.0 12.799999999999999 2.1999999999999997
    vertex -2.1999999999999997 16.4 2.1999999999999997
    vertex 0.0 4.6 2.1999999999999997
  endloop
endfacet
facet normal 8.313493035209397e-18 5.3417047238361464e-18 1.0
  outer loop
    vertex 8.799999999999995 16.4 2.1999999999999997
    vertex 0.0 12.799999999999999 2.1999999999999997
    vertex 7.399999999999998 12.799999999999999 2.1999999999999997
  endloop
endfacet
facet normal 8.313493035209397e-18 5.3417047238361464e-18 1.0
  outer loop
    vertex 8.799999999999995 16.4 2.1999999999999997
    vertex 7.399999999999998 12.799999999999999 2.1999999999999997
    vertex 7.3999999999999995 4.6 2.1999999999999997
  endloop
endfacet
facet normal 8.313493035209397e-18 5.3417047238361464e-18 1.0
  outer loop
    vertex 8.799999999999995 16.4 2.1999999999999997
    vertex 7.3999999999999995 4.6 2.1999999999999997
    vertex 8.799999999999995 13.099999999999998 2.199999999999999
  endloop
endfacet
facet normal 1.0 -0.0 -0.0
  outer loop
    vertex 8.799999999999995 16.4 -3.1
    vertex 8.799999999999995 14.2 0.0
    vertex 8.799999999999995 14.2 -3.1
  endloop
endfacet
facet normal 1.0 -0.0 -0.0
  outer loop
    vertex 8.799999999999995 14.2 0.0
    vertex 8.799999999999995 16.4 -3.1
    vertex 8.799999999999995 15.3 1.0999999999999999
  endloop
endfacet
facet normal 1.0 -0.0 -0.0
  outer loop
    vertex 8.799999999999995 15.3 1.0999999999999999
    vertex 8.799999999999995 16.4 -3.1
    vertex 8.799999999999995 16.4 1.0999999999999996
  endloop
endfacet
facet normal 1.0 -5.1246346007714345e-17 1.2561797736088234e-15
  outer loop
    vertex 14.399999999999997 19.4 1.0999999999999999
    vertex 14.399999999999997 16.4 2.1999999999999997
    vertex 14.399999999999997 16.4 1.0999999999999996
  endloop
endfacet
facet normal 1.0 -5.1246346007714345e-17 1.2561797736088234e-15
  outer loop
    vertex 14.399999999999997 16.4 2.1999999999999997
    vertex 14.399999999999993 14.2 3.2999999999999994
    vertex 14.399999999999993 13.099999999999998 2.199999999999999
  endloop
endfacet
facet normal 1.0 -5.1246346007714345e-17 1.2561797736088234e-15
  outer loop
    vertex 14.399999999999993 14.2 3.2999999999999994
    vertex 14.399999999999997 16.4 2.1999999999999997
    vertex 14.399999999999993 19.4 3.2999999999999994
  endloop
endfacet
facet normal 1.0 -5.1246346007714345e-17 1.2561797736088234e-15
  outer loop
    vertex 14.399999999999993 19.4 3.2999999999999994
    vertex 14.399999999999997 16.4 2.1999999999999997
    vertex 14.399999999999997 19.4 1.0999999999999999
  endloop
endfacet
facet normal -0.0 1.0 -0.0
  outer loop
    vertex 14.399999999999997 16.4 1.0999999999999996
    vertex 22.199999999999996 16.4 -3.1
    vertex 14.399999999999997 16.4 -3.1
  endloop
endfacet
facet normal -0.0 1.0 -0.0
  outer loop
    vertex 22.199999999999996 16.4 -3.1
    vertex 14.399999999999997 16.4 1.0999999999999996
    vertex 22.199999999999996 16.4 2.1999999999999997
  endloop
endfacet
facet normal -0.0 1.0 -0.0
  outer loop
    vertex 22.199999999999996 16.4 2.1999999999999997
    vertex 14.399999999999997 16.4 1.0999999999999996
    vertex 14.399999999999997 16.4 2.1999999999999997
  endloop
endfacet
facet normal -0.0 1.0 -0.0
  outer loop
    vertex 0.0 0.0 0.0
    vertex 13.299999999999999 0.0 -3.1
    vertex 0.0 0.0 -3.1
  endloop
endfacet
facet normal -0.0 1.0 -0.0
  outer loop
    vertex 13.299999999999999 0.0 -3.1
    vertex 0.0 0.0 0.0
    vertex 13.299999999999999 0.0 0.0
  endloop
endfacet
facet normal 0.0 0.0 -1.0
  outer loop
    vertex 8.799999999999995 16.4 -3.1
    vertex 4.199999999999999 14.2 -3.1
    vertex 4.199999999999999 16.4 -3.1
  endloop
endfacet
facet normal 0.0 0.0 -1.0
  outer loop
    vertex 4.199999999999999 14.2 -3.1
    vertex 8.799999999999995 16.4 -3.1
    vertex 8.799999999999995 14.2 -3.1
  endloop
endfacet
facet normal 1.0 -0.0 -0.0
  outer loop
    vertex 13.299999999999999 0.0 -3.1
    vertex 13.299999999999999 -2.1999999999999997 0.0
    vertex 13.299999999999999 -2.1999999999999997 -3.1
  endloop
endfacet
facet normal 1.0 -0.0 -0.0
  outer loop
    vertex 13.299999999999999 -2.1999999999999997 0.0
    vertex 13.299999999999999 0.0 -3.1
    vertex 13.299999999999999 0.0 0.0
  endloop
endfacet
facet normal 0.0 0.0 1.0
  outer loop
    vertex 1.5 3.0 -2.100000000000002
    vertex 0.0 4.999999999999999 -2.100000000000002
    vertex 0.0 3.0 -2.100000000000002
  endloop
endfacet
facet normal 0.0 0.0 1.0
  outer loop
    vertex 0.0 4.999999999999999 -2.100000000000002
    vertex 1.5 3.0 -2.100000000000002
    vertex 1.5 4.999999999999999 -2.100000000000002
  endloop
endfacet
facet normal -0.0 1.0 0.0
  outer loop
    vertex 0.0 4.999999999999999 -2.100000000000002
    vertex 1.5 4.999999999999999 -3.1
    vertex 0.0 4.999999999999999 -3.1
  endloop
endfacet
facet normal -0.0 1.0 0.0
  outer loop
    vertex 1.5 4.999999999999999 -3.1
    vertex 0.0 4.999999999999999 -2.100000000000002
    vertex 1.5 4.999999999999999 -2.100000000000002
  endloop
endfacet
facet normal 1.0 0.0 0.0
  outer loop
    vertex 1.5 4.999999999999999 -3.1
    vertex 1.5 3.0 -2.100000000000002
    vertex 1.5 3.0 -3.1
  endloop
endfacet
facet normal 1.0 0.0 0.0
  outer loop
    vertex 1.5 3.0 -2.100000000000002
    vertex 1.5 4.999999999999999 -3.1
    vertex 1.5 4.999999999999999 -2.100000000000002
  endloop
endfacet
facet normal -0.0 -1.0 -0.0
  outer loop
    vertex 1.5 3.0 -2.100000000000002
    vertex 0.0 3.0 -3.1
    vertex 1.5 3.0 -3.1
  endloop
endfacet
facet normal -0.0 -1.0 -0.0
  outer loop
    vertex 0.0 3.0 -3.1
    vertex 1.5 3.0 -2.100000000000002
    vertex 0.0 3.0 -2.100000000000002
  endloop
endfacet
facet normal 0.0 0.0 1.0
  outer loop
    vertex 1.5 9.2 -2.100000000000002
    vertex 0.0 11.2 -2.100000000000002
    vertex 0.0 9.2 -2.100000000000002
  endloop
endfacet
facet normal 0.0 0.0 1.0
  outer loop
    vertex 0.0 11.2 -2.100000000000002
    vertex 1.5 9.2 -2.100000000000002
    vertex 1.5 11.2 -2.100000000000002
  endloop
endfacet
facet normal -0.0 -1.0 -0.0
  outer loop
    vertex 1.5 9.2 -2.100000000000002
    vertex 0.0 9.2 -3.1
    vertex 1.5 9.2 -3.1
  endloop
endfacet
facet normal -0.0 -1.0 -0.0
  outer loop
    vertex 0.0 9.2 -3.1
    vertex 1.5 9.2 -2.100000000000002
    vertex 0.0 9.2 -2.100000000000002
  endloop
endfacet
facet normal -0.0 1.0 0.0
  outer loop
    vertex 0.0 11.2 -2.100000000000002
    vertex 1.5 11.2 -3.1
    vertex 0.0 11.2 -3.1
  endloop
endfacet
facet normal -0.0 1.0 0.0
  outer loop
    vertex 1.5 11.2 -3.1
    vertex 0.0 11.2 -2.100000000000002
    vertex 1.5 11.2 -2.100000000000002
  endloop
endfacet
facet normal 1.0 0.0 0.0
  outer loop
    vertex 1.5 11.2 -3.1
    vertex 1.5 9.2 -2.100000000000002
    vertex 1.5 9.2 -3.1
  endloop
endfacet
facet normal 1.0 0.0 0.0
  outer loop
    vertex 1.5 9.2 -2.100000000000002
    vertex 1.5 11.2 -3.1
    vertex 1.5 11.2 -2.100000000000002
  endloop
endfacet
facet normal 0.0 0.0 1.0
  outer loop
    vertex 19.999999999999996 3.0 -2.100000000000002
    vertex 18.499999999999996 4.999999999999999 -2.100000000000002
    vertex 18.499999999999996 3.0 -2.100000000000002
  endloop
endfacet
facet normal 0.0 0.0 1.0
  outer loop
    vertex 18.499999999999996 4.999999999999999 -2.100000000000002
    vertex 19.999999999999996 3.0 -2.100000000000002
    vertex 19.999999999999996 4.999999999999999 -2.100000000000002
  endloop
endfacet
facet normal -0.0 1.0 0.0
  outer loop
    vertex 18.499999999999996 4.999999999999999 -2.100000000000002
    vertex 19.999999999999996 4.999999999999999 -3.1
    vertex 18.499999999999996 4.999999999999999 -3.1
  endloop
endfacet
facet normal -0.0 1.0 0.0
  outer loop
    vertex 19.999999999999996 4.999999999999999 -3.1
    vertex 18.499999999999996 4.999999999999999 -2.100000000000002
    vertex 19.999999999999996 4.999999999999999 -2.100000000000002
  endloop
endfacet
facet normal -0.0 -1.0 -0.0
  outer loop
    vertex 19.999999999999996 3.0 -2.100000000000002
    vertex 18.499999999999996 3.0 -3.1
    vertex 19.999999999999996 3.0 -3.1
  endloop
endfacet
facet normal -0.0 -1.0 -0.0
  outer loop
    vertex 18.499999999999996 3.0 -3.1
    vertex 19.999999999999996 3.0 -2.100000000000002
    vertex 18.499999999999996 3.0 -2.100000000000002
  endloop
endfacet
facet normal -1.0 0.0 0.0
  outer loop
    vertex 18.499999999999996 4.999999999999999 -2.100000000000002
    vertex 18.499999999999996 3.0 -3.1
    vertex 18.499999999999996 3.0 -2.100000000000002
  endloop
endfacet
facet normal -1.0 0.0 0.0
  outer loop
    vertex 18.499999999999996 3.0 -3.1
    vertex 18.499999999999996 4.999999999999999 -2.100000000000002
    vertex 18.499999999999996 4.999999999999999 -3.1
  endloop
endfacet
facet normal 0.0 0.0 1.0
  outer loop
    vertex 19.999999999999996 9.2 -2.100000000000002
    vertex 18.499999999999996 11.2 -2.100000000000002
    vertex 18.499999999999996 9.2 -2.100000000000002
  endloop
endfacet
facet normal 0.0 0.0 1.0
  outer loop
    vertex 18.499999999999996 11.2 -2.100000000000002
    vertex 19.999999999999996 9.2 -2.100000000000002
    vertex 19.999999999999996 11.2 -2.100000000000002
  endloop
endfacet
facet normal -0.0 -1.0 -0.0
  outer loop
    vertex 19.999999999999996 9.2 -2.100000000000002
    vertex 18.499999999999996 9.2 -3.1
    vertex 19.999999999999996 9.2 -3.1
  endloop
endfacet
facet normal -0.0 -1.0 -0.0
  outer loop
    vertex 18.499999999999996 9.2 -3.1
    vertex 19.999999999999996 9.2 -2.100000000000002
    vertex 18.499999999999996 9.2 -2.100000000000002
  endloop
endfacet
facet normal -1.0 0.0 0.0
  outer loop
    vertex 18.499999999999996 11.2 -2.100000000000002
    vertex 18.499999999999996 9.2 -3.1
    vertex 18.499999999999996 9.2 -2.100000000000002
  endloop
endfacet
facet normal -1.0 0.0 0.0
  outer loop
    vertex 18.499999999999996 9.2 -3.1
    vertex 18.499999999999996 11.2 -2.100000000000002
    vertex 18.499999999999996 11.2 -3.1
  endloop
endfacet
facet normal -0.0 1.0 0.0
  outer loop
    vertex 18.499999999999996 11.2 -2.100000000000002
    vertex 19.999999999999996 11.2 -3.1
    vertex 18.499999999999996 11.2 -3.1
  endloop
endfacet
facet normal -0.0 1.0 0.0
  outer loop
    vertex 19.999999999999996 11.2 -3.1
    vertex 18.499999999999996 11.2 -2.100000000000002
    vertex 19.999999999999996 11.2 -2.100000000000002
  endloop
endfacet
facet normal 0.0 0.0 -1.0
  outer loop
    vertex -2.1999999999999997 16.4 -3.1
    vertex 0.0 14.2 -3.1
    vertex -2.1999999999999997 -2.1999999999999997 -3.1
  endloop
endfacet
facet normal 0.0 0.0 -1.0
  outer loop
    vertex 0.0 14.2 -3.1
    vertex -2.1999999999999997 16.4 -3.1
    vertex 1.2 16.4 -3.1
  endloop
endfacet
facet normal 0.0 0.0 -1.0
  outer loop
    vertex 0.0 14.2 -3.1
    vertex 1.2 16.4 -3.1
    vertex 1.2 14.2 -3.1
  endloop
endfacet
facet normal 0.0 0.0 -1.0
  outer loop
    vertex 1.5 11.2 -3.1
    vertex 0.0 9.2 -3.1
    vertex 0.0 11.2 -3.1
  endloop
endfacet
facet normal 0.0 0.0 -1.0
  outer loop
    vertex 0.0 9.2 -3.1
    vertex 1.5 11.2 -3.1
    vertex 1.5 9.2 -3.1
  endloop
endfacet
facet normal 0.0 0.0 -1.0
  outer loop
    vertex 1.5 4.999999999999999 -3.1
    vertex 0.0 3.0 -3.1
    vertex 0.0 4.999999999999999 -3.1
  endloop
endfacet
facet normal 0.0 0.0 -1.0
  outer loop
    vertex 0.0 3.0 -3.1
    vertex 1.5 4.999999999999999 -3.1
    vertex 1.5 3.0 -3.1
  endloop
endfacet
facet normal 0.0 0.0 -1.0
  outer loop
    vertex -2.1999999999999997 -2.1999999999999997 -3.1
    vertex 0.0 0.0 -3.1
    vertex 13.299999999999999 -2.1999999999999997 -3.1
  endloop
endfacet
facet normal 0.0 0.0 -1.0
  outer loop
    vertex 0.0 0.0 -3.1
    vertex -2.1999999999999997 -2.1999999999999997 -3.1
    vertex 0.0 14.2 -3.1
  endloop
endfacet
facet normal 0.0 0.0 -1.0
  outer loop
    vertex 0.0 0.0 -3.1
    vertex 0.0 14.2 -3.1
    vertex 0.0 11.2 -3.1
  endloop
endfacet
facet normal 0.0 0.0 -1.0
  outer loop
    vertex 0.0 0.0 -3.1
    vertex 0.0 11.2 -3.1
    vertex 0.0 9.2 -3.1
  endloop
endfacet
facet normal 0.0 0.0 -1.0
  outer loop
    vertex 0.0 0.0 -3.1
    vertex 0.0 9.2 -3.1
    vertex 0.0 4.999999999999999 -3.1
  endloop
endfacet
facet normal 0.0 0.0 -1.0
  outer loop
    vertex 0.0 0.0 -3.1
    vertex 0.0 4.999999999999999 -3.1
    vertex 0.0 3.0 -3.1
  endloop
endfacet
facet normal 0.0 0.0 -1.0
  outer loop
    vertex 13.299999999999999 -2.1999999999999997 -3.1
    vertex 0.0 0.0 -3.1
    vertex 13.299999999999999 0.0 -3.1
  endloop
endfacet
facet normal 0.0 0.0 -1.0
  outer loop
    vertex 4.199999999999999 16.4 -1.4000000000000012
    vertex 1.2 14.2 -1.4000000000000012
    vertex 1.2 16.4 -1.4000000000000012
  endloop
endfacet
facet normal 0.0 0.0 -1.0
  outer loop
    vertex 1.2 14.2 -1.4000000000000012
    vertex 4.199999999999999 16.4 -1.4000000000000012
    vertex 4.199999999999999 14.2 -1.4000000000000012
  endloop
endfacet
facet normal 1.0 -0.0 -0.0
  outer loop
    vertex 1.2 16.4 -3.1
    vertex 1.2 14.2 -1.4000000000000012
    vertex 1.2 14.2 -3.1
  endloop
endfacet
facet normal 1.0 -0.0 -0.0
  outer loop
    vertex 1.2 14.2 -1.4000000000000012
    vertex 1.2 16.4 -3.1
    vertex 1.2 16.4 -1.4000000000000012
  endloop
endfacet
facet normal -1.0 -0.0 -0.0
  outer loop
    vertex 4.199999999999999 16.4 -1.4000000000000012
    vertex 4.199999999999999 14.2 -3.1
    vertex 4.199999999999999 14.2 -1.4000000000000012
  endloop
endfacet
facet normal -1.0 -0.0 -0.0
  outer loop
    vertex 4.199999999999999 14.2 -3.1
    vertex 4.199999999999999 16.4 -1.4000000000000012
    vertex 4.199999999999999 16.4 -3.1
  endloop
endfacet
endsolid vtx
